<?xml version="1.0" standalone="no"?>
<!DOCTYPE svg PUBLIC "-//W3C//DTD SVG 20010904//EN"
 "http://www.w3.org/TR/2001/REC-SVG-20010904/DTD/svg10.dtd">
<svg version="1.0" xmlns="http://www.w3.org/2000/svg"
 width="400.000000pt" height="400.000000pt" viewBox="0 0 400.000000 400.000000"
 preserveAspectRatio="xMidYMid meet">

<g transform="translate(0.000000,400.000000) scale(0.100000,-0.100000)"
fill="#000000" stroke="none">
<path d="M2855 3090 c-3 -5 -1 -10 4 -10 6 0 11 5 11 10 0 6 -2 10 -4 10 -3 0
-8 -4 -11 -10z"/>
<path d="M2841 3023 c5 -15 13 -62 16 -104 l6 -78 17 32 c10 18 15 39 13 47
-4 12 -3 12 5 1 6 -8 12 -9 16 -3 3 6 -6 20 -21 32 -16 12 -22 19 -15 15 7 -4
12 0 12 9 0 10 -6 13 -16 9 -12 -4 -14 0 -9 18 4 17 0 27 -14 36 -19 12 -20
11 -10 -14z"/>
<path d="M2620 2986 c-26 -69 -42 -193 -36 -271 10 -132 21 -151 53 -92 15 26
18 56 18 167 -1 151 -5 209 -17 216 -4 3 -12 -6 -18 -20z"/>
<path d="M2858 2801 c-2 -16 -1 -37 4 -47 6 -16 7 -15 5 6 -2 21 2 25 21 23
19 -3 21 0 13 16 -18 32 -38 33 -43 2z"/>
<path d="M3155 2820 c3 -5 8 -10 11 -10 2 0 4 5 4 10 0 6 -5 10 -11 10 -5 0
-7 -4 -4 -10z"/>
<path d="M3150 2740 c-12 -7 -12 -12 -2 -22 14 -14 35 1 24 19 -5 8 -13 9 -22
3z"/>
<path d="M2856 2722 c-11 -18 12 -72 42 -97 28 -23 36 -26 55 -17 21 11 21 11
-5 7 -23 -3 -27 0 -25 18 1 16 -3 22 -18 22 -16 0 -19 6 -17 28 1 15 -2 27 -8
27 -6 0 -8 5 -5 10 3 6 2 10 -4 10 -5 0 -12 -3 -15 -8z"/>
<path d="M2980 2580 c0 -5 5 -10 10 -10 6 0 10 5 10 10 0 6 -4 10 -10 10 -5 0
-10 -4 -10 -10z"/>
<path d="M3212 2576 c2 -11 8 -21 13 -23 15 -4 41 15 31 24 -5 4 -11 2 -13 -5
-4 -10 -9 -8 -19 5 -14 17 -15 17 -12 -1z"/>
<path d="M2925 2572 c13 -8 17 -52 5 -52 -4 0 -10 6 -13 14 -4 11 -35 14 -137
15 l-131 2 5 -28 c2 -15 5 -35 5 -45 1 -11 7 -15 21 -11 14 4 20 0 20 -11 0
-10 4 -15 9 -11 6 3 18 -6 28 -21 46 -67 56 -72 150 -68 74 3 92 0 123 -17
l35 -21 -19 21 c-11 12 -16 21 -11 21 4 0 2 7 -5 15 -19 23 0 18 38 -12 31
-23 33 -27 18 -38 -15 -11 -14 -16 6 -51 22 -37 26 -39 68 -38 80 2 83 3 73
17 -6 6 -13 22 -16 35 -4 16 -1 22 11 22 15 0 15 2 2 10 -8 5 -11 12 -8 15 14
14 28 -7 28 -41 0 -27 4 -34 20 -34 11 0 20 7 20 15 0 8 7 15 15 15 8 0 15 7
15 15 0 13 -4 14 -21 5 -27 -15 -34 -7 -14 14 16 15 14 18 -22 33 -21 9 -33
18 -26 20 7 2 21 -1 33 -7 11 -6 30 -8 42 -4 15 5 19 3 13 -7 -5 -8 8 4 28 26
40 44 44 57 23 74 -8 6 -19 25 -26 40 -8 21 -17 27 -31 24 -13 -4 -19 0 -19
11 0 18 -8 20 -30 6 -10 -6 -11 -10 -2 -10 14 0 15 -10 2 -30 -9 -13 -11 -13
-20 0 -8 12 -10 11 -10 -7 0 -26 12 -30 30 -8 7 8 25 15 41 15 24 0 28 -4 27
-24 -1 -14 -7 -22 -14 -19 -7 3 -10 11 -7 19 6 17 1 17 -32 2 -15 -7 -24 -17
-21 -25 5 -11 2 -11 -15 1 -12 8 -28 12 -35 9 -8 -3 -14 0 -14 6 0 6 5 11 10
11 6 0 10 7 10 15 0 19 -36 38 -58 31 -12 -4 -23 4 -37 26 l-18 32 -16 -32
c-8 -18 -21 -32 -28 -32 -17 0 -17 17 0 23 6 3 0 6 -15 6 -16 1 -28 -4 -28
-11 0 -8 -5 -6 -11 4 -5 9 -16 15 -23 12 -7 -3 -16 2 -19 10 -4 9 -12 16 -19
16 -8 0 -9 -3 -3 -8z m169 -41 c4 -5 2 -11 -4 -13 -7 -2 -7 -14 -1 -35 9 -32
9 -32 -25 -31 -19 1 -30 4 -23 8 6 4 8 16 5 28 -5 15 -2 22 14 27 11 4 18 11
15 16 -4 5 -2 9 4 9 5 0 12 -4 15 -9z m-70 -16 c3 -8 1 -15 -4 -15 -6 0 -10 7
-10 15 0 8 2 15 4 15 2 0 6 -7 10 -15z m165 -92 c-1 -4 -1 -15 0 -23 1 -12 4
-12 12 3 9 15 39 25 39 13 0 -2 2 -10 5 -18 3 -8 -4 -14 -20 -15 -58 -6 -65
-8 -61 -19 2 -6 1 -16 -3 -23 -6 -9 -11 -8 -21 4 -11 13 -10 18 4 33 9 10 13
22 9 26 -12 11 -12 40 -1 53 9 11 14 10 25 -6 7 -11 13 -24 12 -28z m104 0
c-7 -2 -19 -2 -25 0 -7 3 -2 5 12 5 14 0 19 -2 13 -5z m-198 -54 c11 -17 -1
-21 -15 -4 -8 9 -8 15 -2 15 6 0 14 -5 17 -11z"/>
<path d="M2710 2367 c26 -40 35 -47 53 -41 32 9 41 20 23 27 -9 4 -16 1 -16
-6 0 -8 -4 -7 -10 3 -5 8 -12 12 -15 8 -4 -4 -20 8 -37 25 l-30 32 32 -48z"/>
<path d="M2819 2246 c8 -9 20 -15 28 -12 8 3 12 2 9 -3 -3 -5 5 -16 19 -25 14
-9 25 -13 25 -8 0 16 -32 53 -43 49 -7 -2 -21 0 -32 6 -18 9 -19 9 -6 -7z"/>
<path d="M3176 2194 c9 -13 21 -24 28 -24 6 0 4 5 -4 10 -12 8 -11 10 8 10 20
0 33 19 15 21 -5 0 -20 2 -35 4 -27 4 -27 3 -12 -21z"/>
<path d="M3248 2175 c-9 -9 35 -52 47 -46 5 2 26 4 46 2 21 -1 40 3 44 9 4 6
3 10 -2 9 -23 -4 -53 2 -49 10 3 5 -1 12 -10 15 -10 4 -13 2 -8 -6 7 -11 -10
-9 -47 6 -8 4 -18 4 -21 1z"/>
<path d="M3160 2159 c-13 -8 -13 -10 0 -19 8 -5 20 -10 25 -11 6 0 18 -2 28
-4 11 -2 16 2 14 8 -2 7 -12 14 -23 16 -10 2 -21 7 -24 12 -3 4 -12 4 -20 -2z"/>
<path d="M3240 2140 c0 -5 5 -10 11 -10 5 0 7 5 4 10 -3 6 -8 10 -11 10 -2 0
-4 -4 -4 -10z"/>
<path d="M3109 2127 c7 -7 14 -8 21 -1 6 6 2 10 -12 11 -16 2 -18 -1 -9 -10z"/>
<path d="M3258 2115 c-2 -3 -24 -6 -47 -7 -78 -3 -52 -16 32 -16 45 1 73 3 62
5 -11 3 -25 9 -31 14 -6 5 -13 7 -16 4z"/>
<path d="M3113 2103 c9 -2 23 -2 30 0 6 3 -1 5 -18 5 -16 0 -22 -2 -12 -5z"/>
</g>
</svg>
